<mxfile host="app.diagrams.net" modified="2023-09-27T00:05:49.065Z" agent="Mozilla/5.0 (Windows NT 10.0; Win64; x64) AppleWebKit/537.36 (KHTML, like Gecko) Chrome/116.0.0.0 Safari/537.36 OPR/102.0.0.0" version="21.7.0" etag="h3MqZg_Qj7V1PY0wVvRn" type="github">
  <diagram name="PÃ¡gina-1" id="0XyFKqBReWj_2AqxMUg-">
    <mxGraphModel>
      <root>
        <mxCell id="0" />
        <mxCell id="1" parent="0" />
      </root>
    </mxGraphModel>
  </diagram>
</mxfile>
